<?xml version="1.0" encoding="UTF-8" standalone="no"?>
<!-- Created with Inkscape (http://www.inkscape.org/) -->

<svg
   version="1.1"
   id="svg2"
   width="128"
   height="128"
   viewBox="0 0 128 128"
   sodipodi:docname="favicon.eps"
   xmlns:inkscape="http://www.inkscape.org/namespaces/inkscape"
   xmlns:sodipodi="http://sodipodi.sourceforge.net/DTD/sodipodi-0.dtd"
   xmlns="http://www.w3.org/2000/svg"
   xmlns:svg="http://www.w3.org/2000/svg">
  <defs
     id="defs6" />
  <sodipodi:namedview
     id="namedview4"
     pagecolor="#ffffff"
     bordercolor="#000000"
     borderopacity="0.25"
     inkscape:showpageshadow="2"
     inkscape:pageopacity="0.0"
     inkscape:pagecheckerboard="0"
     inkscape:deskcolor="#d1d1d1" />
  <g
     id="g8"
     inkscape:groupmode="layer"
     inkscape:label="ink_ext_XXXXXX"
     transform="matrix(1.3333333,0,0,-1.3333333,0,128)">
    <g
       id="g10"
       transform="scale(0.1)">
      <path
         d="m 373.898,466.488 1.954,3.153 2.058,3.75 1.969,3.781 1.832,3.906 1.738,3.883 1.582,4.059 1.5,4.082 1.239,4.207 1.21,4.16 1.051,4.32 0.778,4.281 0.742,4.34 0.59,4.488 0.347,4.43 0.282,4.582 0.089,5.559 -0.578,11.5 -1.84,12.34 -3.121,11.941 -4.218,11.441 -5.192,10.879 -6.301,10.258 -7.129,9.5 -7.91,8.813 -8.851,7.937 -9.559,7.152 -10.18,6.211 -10.89,5.231 -11.41,4.238 -12.008,3.059 -12.281,1.91 -11.039,0.59 H 43.0703 L 268.719,300.52 373.898,466.488"
         style="fill:#737779;fill-opacity:1;fill-rule:nonzero;stroke:none"
         id="path12" />
      <path
         d="m 122.84,708.281 0.301,-3.511 0.488,-3.399 0.531,-3.492 0.68,-3.43 0.808,-3.328 0.262,-1.16 h 468.238 l 0.082,-0.082 c 24.219,-0.68 43.7,-20.668 43.7,-45.051 v -2.379 l 0.66,-0.429 c 90.699,-8.93 173.941,-7.821 173.199,-109.411 h -0.117 c -6.301,7.743 -17.633,12.879 -30.422,12.879 h -1.23 L 660.711,546.16 C 587.48,546.512 506.559,444.309 437.199,333.531 l -45.051,-71.89 43.731,-69.039 2.812,-4.274 3.618,-4.777 3.941,-4.781 4.398,-4.489 4.493,-4.211 4.82,-3.98 5.141,-3.649 5.308,-3.281 5.52,-2.961 5.742,-2.668 6.058,-2.281 6.071,-1.879 6.301,-1.461 6.527,-1.121 6.519,-0.668 6.602,-0.152 6.641,0.152 6.57,0.668 6.437,1.121 6.321,1.461 6.07,1.879 6.051,2.281 5.789,2.668 5.562,2.961 5.278,3.281 5.09,3.649 4.812,3.98 4.578,4.289 4.301,4.411 3.961,4.781 3.48,4.527 2.868,4.32 298.339,470.633 1.512,2.559 1.711,2.93 1.598,3.089 1.422,3 1.39,3.18 1.219,3.18 1.172,3.312 1.039,3.239 0.961,3.308 0.758,3.461 0.73,3.383 0.539,3.558 0.379,3.52 0.32,3.48 0.262,3.54 0.02,4.421 -0.418,9.258 -1.492,9.762 -2.418,9.5 -3.43,9.098 -4.133,8.671 -4.918,8.071 -5.793,7.609 -6.289,7 -6.969,6.352 -7.558,5.648 -8.121,4.942 -8.641,4.187 -9.102,3.383 -9.527,2.406 -9.762,1.473 -8.828,0.48 H 220.148 l -8.957,-0.48 -9.75,-1.473 -9.562,-2.406 -9.129,-3.383 -8.551,-4.187 -8.16,-4.942 -7.609,-5.629 -6.981,-6.371 -6.289,-7 -5.711,-7.558 -4.918,-8.122 -4.179,-8.671 -3.313,-9.098 -2.508,-9.5 -1.492,-9.762 -0.437,-9.347 0.046,-4.332 0.192,-3.489"
         style="fill:#ff5b00;fill-opacity:1;fill-rule:nonzero;stroke:none"
         id="path14" />
    </g>
  </g>
</svg>
